<mxfile host="65bd71144e">
    <diagram id="o8hqEk1XuLlJ8u0TKg8c" name="Page-1">
        <mxGraphModel dx="1070" dy="554" grid="1" gridSize="10" guides="1" tooltips="1" connect="1" arrows="1" fold="1" page="1" pageScale="1" pageWidth="850" pageHeight="1100" math="0" shadow="0">
            <root>
                <mxCell id="0"/>
                <mxCell id="1" parent="0"/>
                <mxCell id="4" value="" style="group" vertex="1" connectable="0" parent="1">
                    <mxGeometry x="160" y="80" width="80" height="110" as="geometry"/>
                </mxCell>
                <mxCell id="2" value="e1" style="whiteSpace=wrap;html=1;aspect=fixed;" vertex="1" parent="4">
                    <mxGeometry width="80" height="80" as="geometry"/>
                </mxCell>
                <mxCell id="3" value="0" style="text;html=1;align=center;verticalAlign=middle;resizable=0;points=[];autosize=1;strokeColor=none;fillColor=none;" vertex="1" parent="4">
                    <mxGeometry x="30" y="90" width="20" height="20" as="geometry"/>
                </mxCell>
                <mxCell id="5" value="" style="group" vertex="1" connectable="0" parent="1">
                    <mxGeometry x="250" y="80" width="80" height="110" as="geometry"/>
                </mxCell>
                <mxCell id="6" value="e2" style="whiteSpace=wrap;html=1;aspect=fixed;" vertex="1" parent="5">
                    <mxGeometry width="80" height="80" as="geometry"/>
                </mxCell>
                <mxCell id="7" value="1" style="text;html=1;align=center;verticalAlign=middle;resizable=0;points=[];autosize=1;strokeColor=none;fillColor=none;" vertex="1" parent="5">
                    <mxGeometry x="30" y="90" width="20" height="20" as="geometry"/>
                </mxCell>
                <mxCell id="8" value="" style="group" vertex="1" connectable="0" parent="1">
                    <mxGeometry x="340" y="80" width="80" height="110" as="geometry"/>
                </mxCell>
                <mxCell id="9" value="e3" style="whiteSpace=wrap;html=1;aspect=fixed;" vertex="1" parent="8">
                    <mxGeometry width="80" height="80" as="geometry"/>
                </mxCell>
                <mxCell id="10" value="2" style="text;html=1;align=center;verticalAlign=middle;resizable=0;points=[];autosize=1;strokeColor=none;fillColor=none;" vertex="1" parent="8">
                    <mxGeometry x="30" y="90" width="20" height="20" as="geometry"/>
                </mxCell>
                <mxCell id="11" value="" style="endArrow=classic;html=1;" edge="1" parent="1">
                    <mxGeometry width="50" height="50" relative="1" as="geometry">
                        <mxPoint x="150" y="120" as="sourcePoint"/>
                        <mxPoint x="110" y="120" as="targetPoint"/>
                    </mxGeometry>
                </mxCell>
                <mxCell id="12" value="" style="endArrow=classic;html=1;" edge="1" parent="1">
                    <mxGeometry width="50" height="50" relative="1" as="geometry">
                        <mxPoint x="470" y="120" as="sourcePoint"/>
                        <mxPoint x="430" y="120" as="targetPoint"/>
                    </mxGeometry>
                </mxCell>
                <mxCell id="13" value="" style="group" vertex="1" connectable="0" parent="1">
                    <mxGeometry x="100" y="280" width="80" height="110" as="geometry"/>
                </mxCell>
                <mxCell id="14" value="e1" style="whiteSpace=wrap;html=1;aspect=fixed;" vertex="1" parent="13">
                    <mxGeometry width="80" height="80" as="geometry"/>
                </mxCell>
                <mxCell id="16" value="dequeue" style="text;html=1;align=center;verticalAlign=middle;resizable=0;points=[];autosize=1;strokeColor=none;fillColor=none;" vertex="1" parent="1">
                    <mxGeometry x="110" y="250" width="60" height="20" as="geometry"/>
                </mxCell>
                <mxCell id="17" value="" style="group" vertex="1" connectable="0" parent="1">
                    <mxGeometry x="280" y="280" width="80" height="110" as="geometry"/>
                </mxCell>
                <mxCell id="18" value="e2" style="whiteSpace=wrap;html=1;aspect=fixed;" vertex="1" parent="17">
                    <mxGeometry width="80" height="80" as="geometry"/>
                </mxCell>
                <mxCell id="19" value="0" style="text;html=1;align=center;verticalAlign=middle;resizable=0;points=[];autosize=1;strokeColor=none;fillColor=none;" vertex="1" parent="17">
                    <mxGeometry x="30" y="90" width="20" height="20" as="geometry"/>
                </mxCell>
                <mxCell id="20" value="" style="group" vertex="1" connectable="0" parent="1">
                    <mxGeometry x="370" y="280" width="80" height="110" as="geometry"/>
                </mxCell>
                <mxCell id="21" value="e3" style="whiteSpace=wrap;html=1;aspect=fixed;" vertex="1" parent="20">
                    <mxGeometry width="80" height="80" as="geometry"/>
                </mxCell>
                <mxCell id="22" value="1" style="text;html=1;align=center;verticalAlign=middle;resizable=0;points=[];autosize=1;strokeColor=none;fillColor=none;" vertex="1" parent="20">
                    <mxGeometry x="30" y="90" width="20" height="20" as="geometry"/>
                </mxCell>
                <mxCell id="23" value="" style="endArrow=classic;html=1;" edge="1" parent="1">
                    <mxGeometry width="50" height="50" relative="1" as="geometry">
                        <mxPoint x="270" y="320" as="sourcePoint"/>
                        <mxPoint x="230" y="320" as="targetPoint"/>
                    </mxGeometry>
                </mxCell>
                <mxCell id="24" value="" style="endArrow=classic;html=1;" edge="1" parent="1">
                    <mxGeometry width="50" height="50" relative="1" as="geometry">
                        <mxPoint x="500" y="320" as="sourcePoint"/>
                        <mxPoint x="460" y="320" as="targetPoint"/>
                    </mxGeometry>
                </mxCell>
            </root>
        </mxGraphModel>
    </diagram>
</mxfile>